<?xml version="1.0" encoding="utf-8"?>
<!-- Generator: Adobe Illustrator 25.3.1, SVG Export Plug-In . SVG Version: 6.00 Build 0)  -->
<svg version="1.1" xmlns="http://www.w3.org/2000/svg" xmlns:xlink="http://www.w3.org/1999/xlink" x="0px" y="0px"
	 viewBox="0 0 796.5 168.5" style="enable-background:new 0 0 796.5 168.5;" xml:space="preserve">
<style type="text/css">
	.st0{fill:#FFFFFF;}
	.st1{fill:#E62027;}
</style>
<g id="Guides_For_Artboard">
</g>
<g id="Layer_1">
	<rect class="st0" width="796.5" height="168.5"/>
	<g>
		<path class="st1" d="M478.5,42.2c-3,0-8.1,0.6-8.1,7.2v68.7c0,6.6,5.1,8,8.1,8c4.4,0,8.1-2.7,8.1-8V49.4
			C486.6,44.1,482.9,42.2,478.5,42.2z"/>
		<path class="st1" d="M332.6,39.4c1.2-2.2-0.4-4.8-2.9-4.8c-2.5,0-4.1,2.6-2.9,4.8l1.1,2.1l-6.1,63.1h14.6l-4.8-63.1L332.6,39.4z"
			/>
		<path class="st1" d="M0,0v168.5h796.5V0H0z M139.3,141.2h-14.4V76.5l-17.1,64.7H93.4L76.6,76.5v64.7H62.2V28.1h0.2h14.3h0.1
			l23.9,86.5l24.1-86.5h0.1h14.3h0.2V141.2z M206.6,76.5l-4.2,13.7h-17.8v37.1h18.1l4.2,14h-36.9V28.1l36.9,0.3l-4.2,13.9h-18.1
			v34.2H206.6z M278.2,42.3H264v98.9h-16.8V42.3h-14.1V28.4h45.1V42.3z M339.3,141.2l-1.6-22.8h-17.3l-2.4,22.8h-13.8l10.5-112h30.1
			l10.4,112H339.3z M425.4,77.2l-4.2,13.7h-18v50.3h-14.7V28.4h36.9l-4.2,13.9h-18v34.9H425.4z M502.3,49.3v69v0.1
			c0,14.9-7.8,21.8-23.6,21.8c-15.9,0-24-6.9-24-21.8v-0.1v-69v-0.1c0-14.9,8.2-21.8,24-21.8c15.9,0,23.6,6.9,23.6,21.8V49.3z
			 M566.8,141.2l-7.9-48.1c4.8-0.3,7.5-2.3,7.5-8.1V50.2c0-6.2-3.1-8-8.6-8h-8.1v99h-14.5V28.4h27c16.4,0,19.2,6.7,19.2,21.8V84
			c0,7.5-2.2,12.9-6.7,16.4l-0.3,0.2l7.3,40.6H566.8z M660.8,75.8L645.5,71h-0.1V49.3c0-3.3-1.4-5.6-3.5-6.9
			c-1.5-0.8-3.1-1.1-4.4-1.1c-2.5,0-8.2,1-8.2,8v69.1c0,2.8,0.9,4.6,2.2,5.9c1.9,1.7,4.4,2.1,5.9,2.1c3,0,8-1.4,8-8V96.4l15.3-4.5
			v0.4l0.1,26.3c0,14.9-7.4,21.8-23.3,21.8c-11.4,0-18.4-3.6-21.5-11.1c-1.3-3-1.9-6.6-1.9-10.8V49.1c0-14.9,7.4-21.8,23.3-21.8
			c10,0,16.7,2.8,20.2,8.6c2.1,3.4,3.2,7.8,3.2,13.3V75.8z M733.9,76.5l-4.2,13.7h-17.8v37.1h18.1l4.2,14h-36.9V28.4h36.9l-4.2,13.9
			h-18.1v34.2H733.9z"/>
	</g>
</g>
</svg>
