<?xml version="1.0" encoding="UTF-8"?>
<svg id="_Слой_2" data-name="Слой 2" xmlns="http://www.w3.org/2000/svg" viewBox="0 0 678.69 65.86">
  <g id="_Слой_1-2" data-name="Слой 1">
    <g>
      <polygon points="43.16 44.66 42.89 44.66 20.1 1.24 0 1.24 0 64.58 13.87 64.58 13.87 16.65 14.22 16.65 38.65 64.58 47.49 64.58 71.83 16.65 72.31 16.65 72.31 64.58 86.05 64.58 86.05 1.24 65.95 1.24 43.16 44.66"/>
      <polygon points="97.93 64.58 159.2 64.58 159.2 51.99 111.8 51.99 111.8 39.45 129.1 39.45 129.1 36.26 155.85 36.26 155.85 24.95 129.1 24.95 129.1 28.13 111.8 28.13 111.8 13.82 159.2 13.82 159.2 1.24 97.93 1.24 97.93 64.58"/>
      <polygon points="232.77 1.24 168.9 1.24 168.9 13.83 193.94 13.83 193.94 64.58 207.68 64.58 207.68 13.83 232.77 13.83 232.77 1.24"/>
      <polygon points="254.69 1.24 223.77 64.58 239.15 64.58 263.04 14 263.4 14 287.47 64.58 302.75 64.58 271.79 1.24 254.69 1.24"/>
      <path d="m445.01,9.28c-7.36-6.18-16.83-9.28-28.4-9.28s-21.06,3.09-28.45,9.28c-7.39,6.18-11.09,14.06-11.09,23.63s3.7,17.49,11.09,23.68c7.39,6.18,16.87,9.28,28.45,9.28s21.04-3.09,28.4-9.28c7.36-6.18,11.04-14.08,11.04-23.68s-3.68-17.45-11.04-23.63Zm-9.89,38.25c-4.8,3.83-10.97,5.74-18.51,5.74s-13.75-1.91-18.55-5.74c-4.83-3.86-7.24-8.73-7.24-14.62s2.41-10.78,7.24-14.58c4.8-3.8,10.98-5.7,18.55-5.7s13.68,1.9,18.51,5.7c4.8,3.8,7.2,8.66,7.2,14.58s-2.4,10.79-7.2,14.62Z"/>
      <path d="m593.41,51.9c-4.39.91-8.58,1.37-12.59,1.37-8.54,0-15.45-1.78-20.72-5.34-5.33-3.56-8-8.39-8-14.49s2.59-10.76,7.77-14.8c5.15-4,12.09-6.01,20.81-6.01,8.13.03,14.83,1.4,20.1,4.11.03-.03.6-2.09,1.72-6.18,1.09-3.98,1.63-6.05,1.63-6.23-7.16-2.88-14.84-4.33-23.06-4.33-12.99,0-23.37,3.14-31.14,9.41-7.77,6.27-11.66,14.28-11.66,24.03s3.9,17.63,11.71,23.54c7.77,5.92,18.14,8.88,31.1,8.88,9.81,0,18.13-1.72,24.96-5.17l-2.25-12.1c-2.47,1.33-5.93,2.43-10.38,3.31Z"/>
      <polygon points="307.02 31 311.21 31 311.21 64.58 325.08 64.58 325.08 42.4 367.23 42.4 367.23 31 320.89 31 320.89 13.82 367.23 13.82 367.23 1.24 307.02 1.24 307.02 31"/>
      <path d="m530.77,21.99h0c.05-.53.08-1.07.08-1.62,0-5.86-2.48-10.52-7.43-13.96-5.01-3.44-11.5-5.16-19.48-5.16h-42.14v20.75h3.88v42.59h13.87V21.98h-3.88v-8.06l29.82-.11c3.27,0,5.98.77,8.12,2.31,2.09,1.52,3.15,3.49,3.19,5.86v.14c0,2.47-1.06,4.5-3.19,6.09-2.14,1.62-4.86,2.43-8.12,2.43h-20.14v11.23h12.62l17.95,22.7h16.18l-19.2-24.29c18.08-3.97,17.63-15.7,17.88-18.3Z"/>
      <polygon points="678.69 13.82 678.69 1.24 616.36 1.24 616.36 28.21 621.5 28.21 621.5 39.45 616.36 39.45 616.36 64.58 678.69 64.58 678.69 51.99 630.23 51.99 630.23 39.45 674.27 39.45 674.27 28.13 630.23 28.13 630.23 13.82 678.69 13.82"/>
    </g>
  </g>
</svg>